<svg version="1.1" viewBox="0 0 64 64" xmlns="http://www.w3.org/2000/svg">
 <path d="m74.039 64s-20.323-3.1079-29.062-8.3756c-7.8501-4.7324-13.51-7.2027-12.977-17.61 0.61278-11.969-0.26798-15.732-6.5998-22.374-5.6892-5.9673-31.33-20.684-31.33-20.684m80.728 66.944s-12.783-4.3978-19.892-11.716c-6.7089-6.9065-10.907-9.6178-7.5248-20.287 3.1037-9.7902 0.8727-15.217-7.2944-19.4-8.1671-4.1832-42.349-15.651-42.349-15.651m83.136 67.799s-17.111-5.7776-20.24-15.489c-2.9933-9.2918-3.0186-12.235-0.58646-22.368 2.3969-9.9868-0.81232-15.118-8.9794-19.301-8.1671-4.1832-48.297-9.9904-48.297-9.9904" fill-opacity="0" stroke="#fff" stroke-linecap="square" stroke-miterlimit="2.4" style="paint-order:stroke fill markers"/>
</svg>
