<svg version="1.1" viewBox="0 0 64 64" xmlns="http://www.w3.org/2000/svg">
 <path d="m0 74.039s3.5359-22.476 12.539-27.277c6.913-3.6871 11.342-1.4327 21.476 0.99944 9.9868 2.3969 16.902-2.0017 21.085-10.169 4.1832-8.1671 8.9001-37.592 8.9001-37.592m-61.9 74.798s3.6528-16.674 12.807-21.18c7.2961-3.592 12.991-1.0669 23.558 1.495 9.9812 2.4201 14.325-1.6053 18.508-9.7724 4.1832-8.1671 9.6931-48.693 9.6931-48.693m-65.31 84.226s6.7688-16.021 16.48-19.15c9.2918-2.9933 11.838-2.6221 21.972-0.18998 9.9868 2.3969 15.613 0.37711 19.797-7.79 4.1832-8.1671 8.9001-50.973 8.9001-50.973" fill-opacity="0" stroke="#fff" stroke-linecap="square" stroke-miterlimit="2.4" style="paint-order:stroke fill markers"/>
</svg>
